<mxfile host="app.diagrams.net" modified="2024-05-30T09:33:21.696Z" agent="Mozilla/5.0 (Windows NT 10.0; Win64; x64) AppleWebKit/537.36 (KHTML, like Gecko) Chrome/125.0.0.0 Safari/537.36" version="24.4.10" etag="kuqugrxSAcgj5nGVoL4G" type="github">
  <diagram name="Strona-1" id="wm1Cinn1ikppieU-LCq8">
    <mxGraphModel>
      <root>
        <mxCell id="0" />
        <mxCell id="1" parent="0" />
      </root>
    </mxGraphModel>
  </diagram>
</mxfile>
